<svg id="Group_4728" data-name="Group 4728" xmlns="http://www.w3.org/2000/svg" width="77" height="68" viewBox="0 0 77 68">
  <g id="Path_231" data-name="Path 231" transform="translate(1564 -1524)" fill="none">
    <path d="M-1491.915,1592h-67.171a4.874,4.874,0,0,1-4.915-4.83v-58.34a4.874,4.874,0,0,1,4.915-4.83h67.171a4.873,4.873,0,0,1,4.915,4.83v58.34A4.873,4.873,0,0,1-1491.915,1592Z" stroke="none"/>
    <path d="M -1491.91455078125 1590.999877929688 C -1489.755981445312 1590.999877929688 -1487.999877929688 1589.281616210938 -1487.999877929688 1587.169677734375 L -1487.999877929688 1528.830078125 C -1487.999877929688 1526.718139648438 -1489.755981445312 1524.999877929688 -1491.91455078125 1524.999877929688 L -1559.085205078125 1524.999877929688 C -1561.243774414062 1524.999877929688 -1562.999877929688 1526.718139648438 -1562.999877929688 1528.830078125 L -1562.999877929688 1587.169677734375 C -1562.999877929688 1589.281616210938 -1561.243774414062 1590.999877929688 -1559.085205078125 1590.999877929688 L -1491.91455078125 1590.999877929688 M -1491.91455078125 1591.999877929688 L -1559.085205078125 1591.999877929688 C -1561.799072265625 1591.999877929688 -1563.999877929688 1589.8369140625 -1563.999877929688 1587.169677734375 L -1563.999877929688 1528.830078125 C -1563.999877929688 1526.162841796875 -1561.799072265625 1523.999877929688 -1559.085205078125 1523.999877929688 L -1491.91455078125 1523.999877929688 C -1489.200439453125 1523.999877929688 -1486.999877929688 1526.162841796875 -1486.999877929688 1528.830078125 L -1486.999877929688 1587.169677734375 C -1486.999877929688 1589.8369140625 -1489.200439453125 1591.999877929688 -1491.91455078125 1591.999877929688 Z" stroke="none" fill="#707070"/>
  </g>
  <line id="Line_533" data-name="Line 533" x2="75.893" transform="translate(0.553 18.097)" fill="none" stroke="#707070" stroke-width="1"/>
  <g id="Ellipse_1492" data-name="Ellipse 1492" transform="translate(15 6.64)" fill="none" stroke="#707070" stroke-width="0.5">
    <circle cx="3.32" cy="3.32" r="3.32" stroke="none"/>
    <circle cx="3.32" cy="3.32" r="3.07" fill="none"/>
  </g>
  <g id="Ellipse_1494" data-name="Ellipse 1494" transform="translate(24 6.64)" fill="none" stroke="#707070" stroke-width="0.5">
    <circle cx="3.32" cy="3.32" r="3.32" stroke="none"/>
    <circle cx="3.32" cy="3.32" r="3.07" fill="none"/>
  </g>
  <g id="Ellipse_1493" data-name="Ellipse 1493" transform="translate(6 6.64)" fill="none" stroke="#707070" stroke-width="0.5">
    <circle cx="3.32" cy="3.32" r="3.32" stroke="none"/>
    <circle cx="3.32" cy="3.32" r="3.07" fill="none"/>
  </g>
  <line id="Line_534" data-name="Line 534" x2="19.919" transform="translate(11.066 25.774)" fill="none" stroke="#707070" stroke-linecap="round" stroke-width="1"/>
  <line id="Line_535" data-name="Line 535" x2="36" transform="translate(10.679 31.026)" fill="none" stroke="#707070" stroke-linecap="round" stroke-width="1"/>
  <line id="Line_536" data-name="Line 536" x2="35.412" transform="translate(11.066 35.645)" fill="none" stroke="#707070" stroke-linecap="round" stroke-width="1"/>
</svg>
