<svg xmlns="http://www.w3.org/2000/svg" width="45.8" height="35.516" viewBox="0 0 45.8 35.516">
  <g id="Group_1457" data-name="Group 1457" transform="translate(1672.9 0.4)">
    <path id="Path_224" data-name="Path 224" d="M-1672.5,1702.5h44.418" transform="translate(0 -1667.791)" fill="none" stroke="#707070" stroke-linecap="round" stroke-miterlimit="10" stroke-width="0.8"/>
    <path id="Path_225" data-name="Path 225" d="M-1672.5,1652.386c.6,0,45,.581,45,.581l-6.6-10.467h-31.8Z" transform="translate(0 -1642.5)" fill="none" stroke="#707070" stroke-linecap="round" stroke-linejoin="round" stroke-miterlimit="10" stroke-width="0.8"/>
    <g id="Rectangle_346" data-name="Rectangle 346" transform="translate(-1666.394 19.88)" fill="none" stroke="#707070" stroke-linecap="round" stroke-linejoin="round" stroke-miterlimit="10" stroke-width="0.8">
      <rect width="18.027" height="11.63" stroke="none"/>
      <rect x="0.4" y="0.4" width="17.227" height="10.83" fill="none"/>
    </g>
    <path id="Path_226" data-name="Path 226" d="M-1672,1659s0,6.4,5.234,6.4,5.282-5.965,5.282-5.965" transform="translate(-0.209 -1648.7)" fill="none" stroke="#707070" stroke-linecap="round" stroke-miterlimit="10" stroke-width="0.8"/>
    <path id="Path_227" data-name="Path 227" d="M-1654,1659s0,6.4,5.234,6.4,5.282-5.965,5.282-5.965" transform="translate(-7.292 -1648.7)" fill="none" stroke="#707070" stroke-linecap="round" stroke-miterlimit="10" stroke-width="0.8"/>
    <path id="Path_228" data-name="Path 228" d="M-1635.2,1659.407s.151,6.853,5.384,6.853,5.4-6.853,5.4-6.853" transform="translate(-14.734 -1648.984)" fill="none" stroke="#707070" stroke-linecap="round" stroke-miterlimit="10" stroke-width="0.8"/>
    <path id="Path_229" data-name="Path 229" d="M-1616,1660s0,6.4,5.234,6.4,5.282-5.965,5.282-5.965" transform="translate(-22.296 -1649.576)" fill="none" stroke="#707070" stroke-linecap="round" stroke-miterlimit="10" stroke-width="0.8"/>
    <line id="Line_5" data-name="Line 5" x2="0.304" y2="17.878" transform="translate(-1631.584 16.831)" fill="none" stroke="#707070" stroke-linecap="round" stroke-miterlimit="10" stroke-width="0.8"/>
    <line id="Line_6" data-name="Line 6" x2="0.199" y2="18.648" transform="translate(-1669.958 16.061)" fill="none" stroke="#707070" stroke-linecap="round" stroke-miterlimit="10" stroke-width="0.8"/>
    <g id="Rectangle_347" data-name="Rectangle 347" transform="translate(-1643.176 18.718)" fill="none" stroke="#707070" stroke-linecap="round" stroke-linejoin="round" stroke-miterlimit="10" stroke-width="0.8">
      <rect width="8.723" height="16.282" stroke="none"/>
      <rect x="0.4" y="0.4" width="7.923" height="15.482" fill="none"/>
    </g>
  </g>
</svg>
