<svg id="Group_4731" data-name="Group 4731" xmlns="http://www.w3.org/2000/svg" width="68.169" height="67.18" viewBox="0 0 68.169 67.18">
  <g id="Path_237" data-name="Path 237" transform="translate(1374.435 -1521.597)" fill="none">
    <path d="M-1340.656,1542.3l-15.185,15.186-17.711-17.711a3.016,3.016,0,0,1,0-4.264l10.922-10.922a3.015,3.015,0,0,1,4.263,0l.882.883Z" stroke="none"/>
    <path d="M -1355.840942382812 1556.072875976562 L -1342.070190429688 1542.301025390625 L -1359.074096679688 1525.297119140625 C -1359.454467773438 1524.916748046875 -1359.960205078125 1524.707153320312 -1360.498046875 1524.707153320312 C -1361.036254882812 1524.707153320312 -1361.542358398438 1524.916748046875 -1361.9228515625 1525.297119140625 L -1372.844604492188 1536.21875 C -1373.630126953125 1537.005004882812 -1373.630249023438 1538.283569335938 -1372.844848632812 1539.06884765625 L -1355.840942382812 1556.072875976562 M -1355.840942382812 1557.487060546875 L -1373.552001953125 1539.776000976562 C -1374.72900390625 1538.598999023438 -1374.72900390625 1536.68994140625 -1373.552001953125 1535.511962890625 L -1362.630004882812 1524.589965820312 C -1361.4521484375 1523.4130859375 -1359.544067382812 1523.412841796875 -1358.366943359375 1524.589965820312 L -1357.484985351562 1525.473022460938 L -1340.656005859375 1542.301025390625 L -1355.840942382812 1557.487060546875 Z" stroke="none" fill="#707070"/>
  </g>
  <g id="Path_238" data-name="Path 238" transform="translate(1374.169 -1521.858)" fill="none">
    <path d="M-1309.987,1577.233l-10.922,10.922a3.014,3.014,0,0,1-4.264,0l-16.463-16.463,15.06-15.311,16.589,16.589A3.013,3.013,0,0,1-1309.987,1577.233Z" stroke="none"/>
    <path d="M -1323.041015625 1588.03857421875 C -1322.502685546875 1588.03857421875 -1321.996826171875 1587.828857421875 -1321.6162109375 1587.447875976562 L -1310.69384765625 1576.525634765625 C -1310.313110351562 1576.145263671875 -1310.103515625 1575.6396484375 -1310.103515625 1575.101928710938 C -1310.103515625 1574.56396484375 -1310.313232421875 1574.057983398438 -1310.694213867188 1573.677124023438 L -1326.570190429688 1557.801025390625 L -1340.2275390625 1571.686157226562 L -1324.465576171875 1587.4482421875 C -1324.085205078125 1587.828857421875 -1323.579345703125 1588.03857421875 -1323.041015625 1588.03857421875 M -1323.041015625 1589.038452148438 C -1323.812744140625 1589.038452148438 -1324.58447265625 1588.744018554688 -1325.172973632812 1588.155029296875 L -1341.635986328125 1571.692016601562 L -1326.576049804688 1556.380981445312 L -1309.987060546875 1572.969970703125 C -1308.808959960938 1574.14794921875 -1308.808959960938 1576.056030273438 -1309.987060546875 1577.233032226562 L -1320.909057617188 1588.155029296875 C -1321.49755859375 1588.744018554688 -1322.269287109375 1589.038452148438 -1323.041015625 1589.038452148438 Z" stroke="none" fill="#707070"/>
  </g>
  <line id="Line_538" data-name="Line 538" y1="3.36" x2="3.506" transform="translate(13.376 3.944)" fill="none" stroke="#707070" stroke-width="1"/>
  <line id="Line_539" data-name="Line 539" y1="5.483" x2="5.263" transform="translate(15.993 8.249)" fill="none" stroke="#707070" stroke-width="1"/>
  <line id="Line_540" data-name="Line 540" y1="3.65" x2="3.444" transform="translate(22.106 12.515)" fill="none" stroke="#707070" stroke-width="1"/>
  <path id="Path_239" data-name="Path 239" d="M-1349.755,1543.657c.146-.146,5.2-5.251,5.2-5.251" transform="translate(1374.331 -1521.667)" fill="none" stroke="#707070" stroke-width="1"/>
  <line id="Line_541" data-name="Line 541" y1="3.53" x2="3.272" transform="translate(46.768 37.005)" fill="none" stroke="#707070" stroke-width="1"/>
  <line id="Line_542" data-name="Line 542" y1="5.103" x2="5.205" transform="translate(49.09 41.254)" fill="none" stroke="#707070" stroke-width="1"/>
  <line id="Line_543" data-name="Line 543" y1="3.479" x2="3.469" transform="translate(55.094 45.567)" fill="none" stroke="#707070" stroke-width="1"/>
  <line id="Line_544" data-name="Line 544" y1="5.328" x2="4.98" transform="translate(57.724 49.685)" fill="none" stroke="#707070" stroke-width="1"/>
  <g id="Rectangle_348" data-name="Rectangle 348" transform="translate(36 14.507) rotate(-45)" fill="none" stroke="#707070" stroke-width="1">
    <rect width="11.248" height="24.524" stroke="none"/>
    <rect x="0.5" y="0.5" width="10.248" height="23.524" fill="none"/>
  </g>
  <g id="Path_240" data-name="Path 240" transform="translate(1374.435 -1521.858)" fill="none">
    <path d="M-1336.314,1537.959-1322.27,1552l-4.305,4.378-15.061,15.311-13.378,13.6-16.07,3.214,1.023-16.8,14.221-14.219,15.185-15.186Z" stroke="none"/>
    <path d="M -1336.314208984375 1539.373291015625 L -1369.086669921875 1572.145629882812 L -1370.00732421875 1587.27197265625 L -1355.511596679688 1584.372924804688 L -1323.6787109375 1552.008911132812 L -1336.314208984375 1539.373291015625 M -1336.314208984375 1537.959106445312 L -1322.270385742188 1552.0029296875 L -1326.57568359375 1556.38134765625 L -1355.01416015625 1585.293212890625 L -1371.084350585938 1588.507202148438 L -1370.061767578125 1571.70654296875 L -1336.314208984375 1537.959106445312 Z" stroke="none" fill="#707070"/>
  </g>
  <g id="Path_241" data-name="Path 241" transform="translate(1374.169 -1521.597)" fill="none">
    <path d="M-1306,1535.549l-8.383,8.435-13.978-13.978,8.409-8.409Z" stroke="none"/>
    <path d="M -1314.385009765625 1542.567504882812 L -1307.411987304688 1535.55078125 L -1319.951904296875 1523.010864257812 L -1326.94677734375 1530.005737304688 L -1314.385009765625 1542.567504882812 M -1314.3828125 1543.98388671875 L -1328.360961914062 1530.005737304688 L -1319.951904296875 1521.5966796875 L -1306 1535.548583984375 L -1314.3828125 1543.98388671875 Z" stroke="none" fill="#707070"/>
  </g>
  <path id="Path_242" data-name="Path 242" d="M-1336.46,1537.813" transform="translate(1374.287 -1521.66)" fill="none" stroke="#707070" stroke-width="1"/>
  <path id="Path_243" data-name="Path 243" d="M-1370.135,1571.633h9.35v5.113h5.113l.584,8.473" transform="translate(1374.435 -1521.858)" fill="none" stroke="#707070" stroke-width="1"/>
</svg>
