<svg xmlns="http://www.w3.org/2000/svg" width="84.802" height="82.321" viewBox="0 0 84.802 82.321">
  <g id="Component_190_1" data-name="Component 190 – 1" transform="translate(1)">
    <g id="Group_5983" data-name="Group 5983" transform="translate(35.801 8.971)">
      <path id="Path_4668" data-name="Path 4668" d="M-1597.145,1541.558a144.327,144.327,0,0,1-13.051,17.186c-1.207,1.386-2.366,2.7-3.466,3.908-.586.657-1.159,1.279-1.709,1.865-1.243-1.267-5.94-3.824-5.94-3.824.634-1.255,1.315-2.605,2.02-3.956.98-1.888,1.972-3.789,2.868-5.474,1.7-3.215,3-5.641,3-5.641,12.979-22.9,19.074-22.743,20.664-20.6S-1591.42,1532.141-1597.145,1541.558Z" transform="translate(1638.871 -1524.112)" fill="none" stroke="#707070" stroke-linejoin="round" stroke-width="2"/>
      <path id="Path_4669" data-name="Path 4669" d="M-1614.89,1558.544c-3,3.167-5.163,5.163-5.4,4.864a.037.037,0,0,1-.012-.024c-.9-1.661-3.466-2.426-3.466-2.426a65.811,65.811,0,0,1,2.94-6.238S-1616.133,1557.277-1614.89,1558.544Z" transform="translate(1638.391 -1518.139)" fill="none" stroke="#707070" stroke-linejoin="round" stroke-width="2"/>
      <path id="Path_4670" data-name="Path 4670" d="M-1617.921,1562.391s5.8,12.33-10.888,14.039c0,0-5.4.339-7.2-2.987,0,0,7.269-.06,7.063-1.237s-4.828-13.714,7.563-12.244" transform="translate(1636.004 -1517.14)" fill="none" stroke="#707070" stroke-linejoin="round" stroke-width="2"/>
    </g>
    <g id="Group_5984" data-name="Group 5984">
      <g id="Path_4671" data-name="Path 4671" transform="translate(1668.501 -1516.606)" fill="none" stroke-linejoin="round">
        <path d="M-1613.6,1537.138a20.889,20.889,0,0,1-5.407,14.124,19.187,19.187,0,0,1-14.263,6.407,19.187,19.187,0,0,1-14.263-6.407,20.889,20.889,0,0,1-5.407-14.124c0-11.336,8.806-20.532,19.669-20.532S-1613.6,1525.8-1613.6,1537.138Z" stroke="none"/>
        <path d="M -1633.264526367188 1555.669067382812 C -1630.806884765625 1555.669067382812 -1628.431518554688 1555.151245117188 -1626.204467773438 1554.130126953125 C -1624.043579101562 1553.139282226562 -1622.118896484375 1551.722412109375 -1620.483642578125 1549.918701171875 C -1620.482055664062 1549.9169921875 -1620.48046875 1549.915283203125 -1620.47900390625 1549.91357421875 C -1617.32958984375 1546.464111328125 -1615.595092773438 1541.927001953125 -1615.595092773438 1537.13818359375 C -1615.595092773438 1534.625854492188 -1616.06591796875 1532.190185546875 -1616.994384765625 1529.898803710938 C -1617.889526367188 1527.689697265625 -1619.169921875 1525.70654296875 -1620.80029296875 1524.004516601562 C -1624.134887695312 1520.523071289062 -1628.561401367188 1518.605834960938 -1633.264526367188 1518.605834960938 C -1637.967651367188 1518.605834960938 -1642.394165039062 1520.523071289062 -1645.728759765625 1524.004516601562 C -1647.359008789062 1525.70654296875 -1648.639526367188 1527.689697265625 -1649.534545898438 1529.898803710938 C -1650.463012695312 1532.190185546875 -1650.933837890625 1534.625854492188 -1650.933837890625 1537.13818359375 C -1650.933837890625 1541.92724609375 -1649.199462890625 1546.464233398438 -1646.050170898438 1549.91357421875 C -1646.048583984375 1549.915283203125 -1646.047119140625 1549.9169921875 -1646.045532226562 1549.918701171875 C -1644.410278320312 1551.722412109375 -1642.485595703125 1553.139282226562 -1640.324584960938 1554.130126953125 C -1638.097534179688 1555.151245117188 -1635.72216796875 1555.669067382812 -1633.264526367188 1555.669067382812 M -1633.264526367188 1557.669067382812 C -1638.881713867188 1557.669067382812 -1643.942993164062 1555.215576171875 -1647.527221679688 1551.262084960938 C -1650.8759765625 1547.59423828125 -1652.933837890625 1542.618896484375 -1652.933837890625 1537.13818359375 C -1652.933837890625 1525.802368164062 -1644.128295898438 1516.605834960938 -1633.264526367188 1516.605834960938 C -1622.40087890625 1516.605834960938 -1613.595092773438 1525.802368164062 -1613.595092773438 1537.13818359375 C -1613.595092773438 1542.618896484375 -1615.653198242188 1547.59423828125 -1619.001953125 1551.262084960938 C -1622.586181640625 1555.215576171875 -1627.6474609375 1557.669067382812 -1633.264526367188 1557.669067382812 Z" stroke="none" fill="#707070"/>
      </g>
      <path id="Path_4672" data-name="Path 4672" d="M-1595.5,1586.559c0,1.757-.12,3.525-.263,5.223l-69.939-.179a47.022,47.022,0,0,1-.263-5.043c0-14.736,6.346-27.7,15.955-35.2A32.116,32.116,0,0,1-1645,1548.1a18.264,18.264,0,0,0,14.27,7.326,18.263,18.263,0,0,0,14.27-7.326,33.56,33.56,0,0,1,5.88,3.956c-.705,1.35-1.386,2.7-2.02,3.956,0,0,4.7,2.557,5.94,3.824.55-.586,1.123-1.207,1.709-1.865a20.671,20.671,0,0,1,1.446,1.924A46.877,46.877,0,0,1-1595.5,1586.559Z" transform="translate(1665.96 -1510.461)" fill="none" stroke="#707070" stroke-linejoin="round" stroke-width="2"/>
    </g>
  </g>
</svg>
