<svg xmlns="http://www.w3.org/2000/svg" width="45.8" height="45.4" viewBox="0 0 45.8 45.4">
  <g id="Group_1455" data-name="Group 1455" transform="translate(1681.36)">
    <g id="Group_1452" data-name="Group 1452" transform="translate(-1667.536)">
      <g id="Path_214" data-name="Path 214" transform="translate(1655.189 -1859.546)" fill="none" stroke-miterlimit="10">
        <path d="M-1641.044,1864.835a5.38,5.38,0,0,1-1.393,3.638,4.944,4.944,0,0,1-3.675,1.651,4.946,4.946,0,0,1-3.674-1.651,5.381,5.381,0,0,1-1.393-3.638,5.182,5.182,0,0,1,5.067-5.289A5.182,5.182,0,0,1-1641.044,1864.835Z" stroke="none"/>
        <path d="M -1646.111694335938 1869.32421875 C -1644.936157226563 1869.32421875 -1643.841674804688 1868.831298828125 -1643.02783203125 1867.934204101563 C -1642.2646484375 1867.098510742188 -1641.844360351563 1865.997924804688 -1641.844360351563 1864.83544921875 C -1641.844360351563 1862.359985351563 -1643.758666992188 1860.346069335938 -1646.111694335938 1860.346069335938 C -1648.464721679688 1860.346069335938 -1650.379028320313 1862.359985351563 -1650.379028320313 1864.83544921875 C -1650.379028320313 1865.997680664063 -1649.958740234375 1867.09814453125 -1649.193603515625 1867.936157226563 C -1648.381469726563 1868.831298828125 -1647.286987304688 1869.32421875 -1646.111694335938 1869.32421875 M -1646.111694335938 1870.124267578125 C -1647.558349609375 1870.124267578125 -1648.862426757813 1869.491821289063 -1649.7861328125 1868.4736328125 C -1650.648559570313 1867.529052734375 -1651.179077148438 1866.247314453125 -1651.179077148438 1864.83544921875 C -1651.179077148438 1861.914672851563 -1648.910400390625 1859.546020507813 -1646.111694335938 1859.546020507813 C -1643.312744140625 1859.546020507813 -1641.044311523438 1861.914672851563 -1641.044311523438 1864.83544921875 C -1641.044311523438 1866.247314453125 -1641.574462890625 1867.529052734375 -1642.437133789063 1868.4736328125 C -1643.360717773438 1869.491821289063 -1644.664184570313 1870.124267578125 -1646.111694335938 1870.124267578125 Z" stroke="none" fill="#707070"/>
      </g>
      <path id="Path_215" data-name="Path 215" d="M-1640.307,1887.058c0,.44-.033.886-.066,1.311v.033l-12.392-.033-5.629-.011a12.786,12.786,0,0,1-.066-1.3,11.851,11.851,0,0,1,2.864-7.892,9.978,9.978,0,0,1,1.245-1.173,8.143,8.143,0,0,1,1.294-.842,4.7,4.7,0,0,0,3.673,1.889,4.7,4.7,0,0,0,3.673-1.889,9.034,9.034,0,0,1,1.674,1.151c.044.039.094.088.138.127,0,0,.33.33.694.738a9.7,9.7,0,0,1,.832,1.025A12.052,12.052,0,0,1-1640.307,1887.058Z" transform="translate(1658.46 -1867.455)" fill="none" stroke="#707070" stroke-miterlimit="10" stroke-width="0.8"/>
    </g>
    <g id="Group_1453" data-name="Group 1453" transform="translate(-1651.249)">
      <g id="Path_216" data-name="Path 216" transform="translate(1629.825 -1859.546)" fill="none" stroke-miterlimit="10">
        <path d="M-1618.544,1864.835a5.381,5.381,0,0,1-1.393,3.638,4.944,4.944,0,0,1-3.675,1.651,4.946,4.946,0,0,1-3.674-1.651,5.381,5.381,0,0,1-1.393-3.638,5.182,5.182,0,0,1,5.067-5.289A5.182,5.182,0,0,1-1618.544,1864.835Z" stroke="none"/>
        <path d="M -1623.611694335938 1869.32421875 C -1622.436157226563 1869.32421875 -1621.341674804688 1868.831298828125 -1620.52783203125 1867.934204101563 C -1619.7646484375 1867.098388671875 -1619.344360351563 1865.997924804688 -1619.344360351563 1864.83544921875 C -1619.344360351563 1862.359985351563 -1621.258666992188 1860.346069335938 -1623.611694335938 1860.346069335938 C -1625.964721679688 1860.346069335938 -1627.879028320313 1862.359985351563 -1627.879028320313 1864.83544921875 C -1627.879028320313 1865.997680664063 -1627.458740234375 1867.09814453125 -1626.693603515625 1867.936157226563 C -1625.881469726563 1868.831298828125 -1624.786987304688 1869.32421875 -1623.611694335938 1869.32421875 M -1623.611694335938 1870.124267578125 C -1625.058349609375 1870.124267578125 -1626.362426757813 1869.491821289063 -1627.2861328125 1868.4736328125 C -1628.148559570313 1867.529052734375 -1628.679077148438 1866.247314453125 -1628.679077148438 1864.83544921875 C -1628.679077148438 1861.914672851563 -1626.410400390625 1859.546020507813 -1623.611694335938 1859.546020507813 C -1620.812744140625 1859.546020507813 -1618.544311523438 1861.914672851563 -1618.544311523438 1864.83544921875 C -1618.544311523438 1866.247314453125 -1619.074584960938 1867.529052734375 -1619.937133789063 1868.4736328125 C -1620.860717773438 1869.491821289063 -1622.164184570313 1870.124267578125 -1623.611694335938 1870.124267578125 Z" stroke="none" fill="#707070"/>
      </g>
      <path id="Path_217" data-name="Path 217" d="M-1615.471,1887.058c0,.452-.033.909-.066,1.344l-12.392-.033c.033-.424.066-.87.066-1.311a12.051,12.051,0,0,0-2.065-6.868,9.733,9.733,0,0,0-.832-1.025,9.987,9.987,0,0,1,1.245-1.173,8.138,8.138,0,0,1,1.294-.842,4.7,4.7,0,0,0,3.673,1.889,4.7,4.7,0,0,0,3.674-1.889,9.041,9.041,0,0,1,1.674,1.151c.044.039.094.088.138.127a15.44,15.44,0,0,1,1.526,1.762A12.051,12.051,0,0,1-1615.471,1887.058Z" transform="translate(1630.76 -1867.455)" fill="none" stroke="#707070" stroke-miterlimit="10" stroke-width="0.8"/>
    </g>
    <g id="Group_1454" data-name="Group 1454" transform="translate(-1680.96)">
      <g id="Path_218" data-name="Path 218" transform="translate(1677.689 -1859.546)" fill="none" stroke-miterlimit="10">
        <path d="M-1663.544,1864.835a5.381,5.381,0,0,1-1.393,3.638,4.944,4.944,0,0,1-3.674,1.651,4.946,4.946,0,0,1-3.675-1.651,5.381,5.381,0,0,1-1.393-3.638,5.182,5.182,0,0,1,5.067-5.289A5.182,5.182,0,0,1-1663.544,1864.835Z" stroke="none"/>
        <path d="M -1668.611450195313 1869.32421875 C -1667.436157226563 1869.32421875 -1666.341674804688 1868.831298828125 -1665.527709960938 1867.934204101563 C -1664.7646484375 1867.098388671875 -1664.344360351563 1865.997924804688 -1664.344360351563 1864.83544921875 C -1664.344360351563 1862.359985351563 -1666.258544921875 1860.346069335938 -1668.611450195313 1860.346069335938 C -1670.964477539063 1860.346069335938 -1672.878784179688 1862.359985351563 -1672.878784179688 1864.83544921875 C -1672.878784179688 1865.997802734375 -1672.45849609375 1867.098388671875 -1671.693603515625 1867.936157226563 C -1670.881469726563 1868.831298828125 -1669.786865234375 1869.32421875 -1668.611450195313 1869.32421875 M -1668.611450195313 1870.124267578125 C -1670.058349609375 1870.124267578125 -1671.362426757813 1869.491821289063 -1672.2861328125 1868.4736328125 C -1673.148559570313 1867.529052734375 -1673.678833007813 1866.247314453125 -1673.678833007813 1864.83544921875 C -1673.678833007813 1861.914672851563 -1671.410400390625 1859.546020507813 -1668.611450195313 1859.546020507813 C -1665.812744140625 1859.546020507813 -1663.544311523438 1861.914672851563 -1663.544311523438 1864.83544921875 C -1663.544311523438 1866.247314453125 -1664.074462890625 1867.529052734375 -1664.93701171875 1868.4736328125 C -1665.860717773438 1869.491821289063 -1667.1640625 1870.124267578125 -1668.611450195313 1870.124267578125 Z" stroke="none" fill="#707070"/>
      </g>
      <path id="Path_219" data-name="Path 219" d="M-1662.873,1888.369v.033l-18.02-.044a12.716,12.716,0,0,1-.066-1.3,11.472,11.472,0,0,1,4.108-9.066,8.143,8.143,0,0,1,1.294-.842,4.7,4.7,0,0,0,3.673,1.889,4.7,4.7,0,0,0,3.673-1.889,9.034,9.034,0,0,1,1.674,1.151c.044.039.094.088.138.127,0,0,.33.33.694.738a11.851,11.851,0,0,0-2.864,7.892,12.751,12.751,0,0,0,.066,1.3Z" transform="translate(1680.96 -1867.455)" fill="none" stroke="#707070" stroke-miterlimit="10" stroke-width="0.8"/>
    </g>
    <path id="Path_220" data-name="Path 220" d="M-1635.732,1902.061a6.409,6.409,0,0,1-6.363,5.608" transform="translate(-16.252 -1878.399)" fill="none" stroke="#707070" stroke-miterlimit="10" stroke-width="0.8"/>
    <path id="Path_221" data-name="Path 221" d="M-1636.129,1902.061a3.331,3.331,0,0,1-2.358,3.182l-2.652.9a3.322,3.322,0,0,0-2.01,4.624l1.21,2.435c1.433,2.867-1.708,5.854-4.716,4.5l-2.544-1.154a3.591,3.591,0,0,0-4.858,1.918l-.943,2.528a3.6,3.6,0,0,1-6.673,0l-.943-2.528a3.591,3.591,0,0,0-4.858-1.918l-2.544,1.154c-3.007,1.358-6.14-1.629-4.716-4.5l1.21-2.435a3.323,3.323,0,0,0-2.01-4.624l-2.652-.9a3.33,3.33,0,0,1-2.358-3.182h15.535a6.621,6.621,0,0,0,6.673,5.608,6.62,6.62,0,0,0,6.673-5.608Z" transform="translate(-0.187 -1878.235)" fill="none" stroke="#707070" stroke-miterlimit="10" stroke-width="0.8"/>
  </g>
</svg>
