<svg xmlns="http://www.w3.org/2000/svg" width="77.5" height="71" viewBox="0 0 77.5 71">
  <g id="Group_4732" data-name="Group 4732" transform="translate(0.5 0.5)">
    <path id="Path_244" data-name="Path 244" d="M-1232.453,1520H-1274.9v70h66.5v-22.4" transform="translate(1274.9 -1520)" fill="none" stroke="#707070" stroke-width="1"/>
    <g id="Path_245" data-name="Path 245" transform="translate(1275.6 -1520)" fill="none">
      <path d="M-1208.4,1520.7s-44.8,43.4-46.2,46.2-7,14-4.2,14,12.6-4.2,14-5.6,46.2-44.8,46.2-44.8Z" stroke="none"/>
      <path d="M -1208.410888671875 1522.103393554688 C -1211.037719726562 1524.651733398438 -1220.576538085938 1533.915893554688 -1230.161010742188 1543.351928710938 C -1236.739379882812 1549.828369140625 -1242.05078125 1555.116577148438 -1245.94775390625 1559.069458007812 C -1252.477783203125 1565.693237304688 -1253.550415039062 1567.067626953125 -1253.707397460938 1567.350830078125 C -1254.318115234375 1568.572265625 -1255.744384765625 1571.425170898438 -1256.90087890625 1574.213745117188 C -1257.541748046875 1575.7587890625 -1258.006225585938 1577.059204101562 -1258.281372070312 1578.078735351562 C -1258.559814453125 1579.11083984375 -1258.5869140625 1579.6416015625 -1258.570434570312 1579.8896484375 C -1257.346435546875 1579.788208007812 -1254.6943359375 1578.951538085938 -1251.65576171875 1577.700317382812 C -1248.419555664062 1576.367797851562 -1245.988159179688 1575.073974609375 -1245.507202148438 1574.592895507812 C -1244.198974609375 1573.284790039062 -1206.025146484375 1536.301025390625 -1200.025512695312 1530.488647460938 L -1208.410888671875 1522.103393554688 M -1208.400024414062 1520.699951171875 L -1198.599975585938 1530.5 C -1198.599975585938 1530.5 -1243.400024414062 1573.900024414062 -1244.800048828125 1575.300048828125 C -1246.199951171875 1576.699951171875 -1256 1580.900024414062 -1258.800048828125 1580.900024414062 C -1261.599975585938 1580.900024414062 -1256 1569.699951171875 -1254.599975585938 1566.900024414062 C -1253.199951171875 1564.099975585938 -1208.400024414062 1520.699951171875 -1208.400024414062 1520.699951171875 Z" stroke="none" fill="#707070"/>
    </g>
  </g>
</svg>
