<svg xmlns="http://www.w3.org/2000/svg" width="23.978" height="39.22" viewBox="0 0 23.978 39.22">
  <g id="Group_5886" data-name="Group 5886" transform="translate(1187.743 -2117)">
    <g id="Group_5885" data-name="Group 5885" transform="translate(-1184.072 2132.899)">
      <g id="Path_4603" data-name="Path 4603" transform="translate(1167.215 -2170.383)" fill="none" stroke-miterlimit="10">
        <path d="M-1154.252,2174.23a4.931,4.931,0,0,1-1.277,3.335,4.53,4.53,0,0,1-3.367,1.513,4.53,4.53,0,0,1-3.367-1.513,4.931,4.931,0,0,1-1.276-3.335,4.75,4.75,0,0,1,4.644-4.847A4.75,4.75,0,0,1-1154.252,2174.23Z" stroke="none"/>
        <path d="M -1158.896240234375 2170.383056640625 C -1160.905395507813 2170.383056640625 -1162.5400390625 2172.10888671875 -1162.5400390625 2174.23046875 C -1162.5400390625 2175.2294921875 -1162.179565429688 2176.17431640625 -1161.522705078125 2176.8935546875 C -1160.830078125 2177.657470703125 -1159.897338867188 2178.078125 -1158.896240234375 2178.078125 C -1157.895141601563 2178.078125 -1156.96240234375 2177.657470703125 -1156.267333984375 2176.890869140625 C -1155.612670898438 2176.174072265625 -1155.252197265625 2175.229248046875 -1155.252197265625 2174.23046875 C -1155.252197265625 2172.10888671875 -1156.886962890625 2170.383056640625 -1158.896240234375 2170.383056640625 M -1158.896240234375 2169.383056640625 C -1156.331176757813 2169.383056640625 -1154.252197265625 2171.5546875 -1154.252197265625 2174.23046875 C -1154.252197265625 2175.52490234375 -1154.73828125 2176.699462890625 -1155.528930664063 2177.565185546875 C -1156.375122070313 2178.49853515625 -1157.570068359375 2179.078125 -1158.896240234375 2179.078125 C -1160.222412109375 2179.078125 -1161.417358398438 2178.49853515625 -1162.263549804688 2177.565185546875 C -1163.05419921875 2176.699462890625 -1163.5400390625 2175.52490234375 -1163.5400390625 2174.23046875 C -1163.5400390625 2171.5546875 -1161.461059570313 2169.383056640625 -1158.896240234375 2169.383056640625 Z" stroke="none" fill="#707070"/>
      </g>
      <path id="Path_4604" data-name="Path 4604" d="M-1159.076,2208.972c.035-.4.063-.819.063-1.232a11.057,11.057,0,0,0-1.891-6.294,14.41,14.41,0,0,0-1.4-1.618c-.042-.035-.084-.077-.126-.112a8.1,8.1,0,0,0-1.533-1.057,4.3,4.3,0,0,1-3.368,1.729,4.3,4.3,0,0,1-3.368-1.729,7.556,7.556,0,0,0-1.183.77,10.51,10.51,0,0,0-3.767,8.311,11.208,11.208,0,0,0,.063,1.19Z" transform="translate(1175.649 -2189.773)" fill="none" stroke="#707070" stroke-miterlimit="10" stroke-width="1"/>
    </g>
    <g id="Path_4605" data-name="Path 4605" transform="translate(0 0)" fill="none" stroke-miterlimit="10">
      <path d="M-1166.251,2125.432h-5.254v-7.351a1.083,1.083,0,0,0-1.08-1.081h-6.337a1.083,1.083,0,0,0-1.081,1.081v7.351h-5.254a2.485,2.485,0,0,0-2.486,2.483v25.823a2.484,2.484,0,0,0,2.486,2.483h19.006a2.484,2.484,0,0,0,2.486-2.483v-25.823A2.485,2.485,0,0,0-1166.251,2125.432Z" stroke="none"/>
      <path d="M -1178.922973632813 2118.000244140625 C -1178.965942382813 2118.000244140625 -1179.003540039063 2118.037841796875 -1179.003540039063 2118.080810546875 L -1179.003540039063 2126.431640625 L -1185.257202148438 2126.431640625 C -1186.076538085938 2126.431640625 -1186.743041992188 2127.0966796875 -1186.743041992188 2127.914306640625 L -1186.743041992188 2153.737548828125 C -1186.743041992188 2154.55517578125 -1186.076538085938 2155.22021484375 -1185.257202148438 2155.22021484375 L -1166.251342773438 2155.22021484375 C -1165.432006835938 2155.22021484375 -1164.765502929688 2154.55517578125 -1164.765502929688 2153.737548828125 L -1164.765502929688 2127.914306640625 C -1164.765502929688 2127.0966796875 -1165.432006835938 2126.431640625 -1166.251342773438 2126.431640625 L -1172.505126953125 2126.431640625 L -1172.505126953125 2118.080810546875 C -1172.505126953125 2118.037841796875 -1172.542724609375 2118.000244140625 -1172.585571289063 2118.000244140625 L -1178.922973632813 2118.000244140625 M -1178.922973632813 2117.000244140625 L -1172.585571289063 2117.000244140625 C -1171.99072265625 2117.000244140625 -1171.505126953125 2117.48583984375 -1171.505126953125 2118.080810546875 L -1171.505126953125 2125.431640625 L -1166.251342773438 2125.431640625 C -1164.87939453125 2125.431640625 -1163.765502929688 2126.542724609375 -1163.765502929688 2127.914306640625 L -1163.765502929688 2153.737548828125 C -1163.765502929688 2155.109375 -1164.87939453125 2156.22021484375 -1166.251342773438 2156.22021484375 L -1185.257202148438 2156.22021484375 C -1186.629150390625 2156.22021484375 -1187.743041992188 2155.109375 -1187.743041992188 2153.737548828125 L -1187.743041992188 2127.914306640625 C -1187.743041992188 2126.542724609375 -1186.629150390625 2125.431640625 -1185.257202148438 2125.431640625 L -1180.003540039063 2125.431640625 L -1180.003540039063 2118.080810546875 C -1180.003540039063 2117.48583984375 -1179.517822265625 2117.000244140625 -1178.922973632813 2117.000244140625 Z" stroke="none" fill="#707070"/>
    </g>
    <g id="Ellipse_1538" data-name="Ellipse 1538" transform="translate(-1177.255 2119)" fill="none" stroke="#707070" stroke-miterlimit="10" stroke-width="0.4">
      <circle cx="1.5" cy="1.5" r="1.5" stroke="none"/>
      <circle cx="1.5" cy="1.5" r="1.3" fill="none"/>
    </g>
  </g>
</svg>
